<svg width="512" height="512" viewBox="0 0 512 512" fill="none" xmlns="http://www.w3.org/2000/svg">
<g clip-path="url(#clip0_3337_118)">
<path d="M251.955 256.142H261.147C265.334 231.328 271.34 208.235 278.712 200.899C286.084 193.564 309.018 187.677 333.772 183.512V174.274C309.018 170.199 286.084 164.222 278.712 156.886C271.249 149.551 265.334 126.639 261.147 101.915H251.955C247.769 126.548 241.762 149.641 234.391 156.886C226.928 164.222 203.721 170.199 178.693 174.365V183.421C203.721 187.496 226.928 193.473 234.391 200.899C241.762 208.326 247.769 231.328 251.955 256.142Z" fill="#D28571"/>
<path d="M386.375 171.738L350.063 264.293C349.517 265.38 349.062 266.466 348.789 267.462C344.602 277.968 338.323 287.748 329.95 296.171C323.761 302.329 317.846 308.487 307.835 312.019C303.466 313.559 295.003 316.547 285.174 313.559C277.074 311.113 272.341 305.951 268.61 301.967C261.42 294.178 258.053 285.756 256.415 279.869C254.777 285.847 251.409 294.269 244.22 302.057C240.488 306.042 235.756 311.204 227.656 313.649C217.827 316.638 209.272 313.649 204.995 312.11C194.893 308.578 189.068 302.51 182.88 296.261C174.416 287.839 168.137 278.058 164.041 267.553C163.677 266.557 163.313 265.47 162.767 264.383L126.455 171.829L62.2935 149.279L164.86 410.188L165.588 410.279C195.712 380.303 225.927 350.327 256.051 320.351H256.324C286.448 350.327 316.663 380.303 346.786 410.279C346.786 410.279 347.333 410.46 347.515 410.188L450.081 149.279L386.284 171.738H386.375Z" fill="#D28571"/>
</g>
<defs>
<clipPath id="clip0_3337_118">
<rect width="387.879" height="387.879" fill="white" transform="translate(62.0605 62.0605)"/>
</clipPath>
</defs>
</svg>
