<svg width="1024" height="440" viewBox="0 0 1024 440" fill="none" xmlns="http://www.w3.org/2000/svg">
<g clip-path="url(#clip0_3342_356)">
<path d="M165.109 207.887H170.081C172.341 194.418 175.595 181.853 179.573 177.876C183.55 173.898 195.934 170.735 209.403 168.475V163.412C196.025 161.243 183.55 157.989 179.573 154.011C175.505 150.034 172.341 137.559 170.081 124.09H165.109C162.85 137.469 159.595 150.034 155.618 154.011C151.55 157.989 138.985 161.243 125.426 163.503V168.475C138.985 170.644 151.55 173.898 155.618 177.966C159.595 182.034 162.85 194.509 165.109 207.977V207.887Z" fill="#D28571"/>
<path d="M237.877 161.966L218.261 212.316C217.99 212.949 217.718 213.491 217.538 214.034C215.278 219.729 211.933 225.062 207.323 229.672C203.978 233.017 200.814 236.361 195.3 238.26C192.95 239.073 188.34 240.7 183.007 239.073C178.668 237.717 176.046 234.915 174.057 232.746C170.17 228.497 168.362 223.887 167.458 220.723C166.555 223.977 164.747 228.587 160.86 232.746C158.871 234.915 156.249 237.717 151.91 239.073C146.577 240.7 141.967 239.073 139.617 238.26C134.193 236.361 131.029 233.017 127.594 229.672C122.984 225.062 119.639 219.729 117.379 214.034C117.199 213.491 116.927 212.949 116.656 212.316L97.0404 161.966L62.4189 149.763L117.922 291.683H118.374C134.735 275.412 151.007 259.051 167.368 242.779H167.549C183.91 259.051 200.182 275.412 216.543 291.683C216.543 291.683 216.814 291.774 216.995 291.683L272.498 149.763L237.967 161.966H237.877Z" fill="#D28571"/>
<path d="M408.179 209.333C427.794 209.514 446.054 220.633 446.054 244.497C446.054 256.52 441.625 265.65 433.399 271.345C425.444 277.763 412.97 280.836 397.06 280.836H350.597V280.655C351.591 280.655 360.721 279.119 360.721 263.209V166.486C360.721 150.576 351.591 149.04 350.597 149.04V148.859H400.676C416.224 148.859 426.348 151.932 432.676 157.356C438.732 162.599 441.173 169.559 441.173 177.333C441.173 200.294 417.309 209.333 408.359 209.333H408.179ZM394.438 207.797C408.269 207.797 418.664 197.672 418.755 178.508C418.755 170.192 416.857 164.316 413.874 160.429C409.806 154.825 403.568 152.655 396.789 152.655H383.953V207.797H394.438ZM395.794 277.13C404.563 277.13 411.162 274.237 415.953 268.181C420.02 262.938 422.551 255.706 422.551 245.492C422.551 228.407 415.772 211.503 394.438 211.503H383.953V277.13H395.794Z" fill="#D28571"/>
<path d="M471.364 182.757V182.395H503.997V201.469C508.065 191.164 515.116 180.678 530.754 180.678C538.347 180.678 541.782 182.215 543.229 182.215V214.215H542.867C542.506 206.983 539.974 200.475 535.635 196.588C532.562 193.333 528.494 191.706 523.432 191.706C511.952 191.706 504.449 201.198 503.997 217.107V263.932C503.997 279.119 512.585 280.655 513.669 280.655V280.836H471.364V280.655C472.178 280.655 481.037 279.119 481.037 263.932V199.48C481.037 184.113 472.268 182.757 471.364 182.757Z" fill="#D28571"/>
<path d="M564.383 212.498L563.841 212.317C565.016 196.046 579.208 181.04 605.151 181.04C614.643 181.04 626.937 182.577 635.253 189.628C640.677 194.328 644.021 201.47 644.021 211.955V263.842C644.021 279.029 652.79 280.566 653.694 280.566V280.746H621.061V263.029C616.18 272.159 605.332 281.831 586.892 281.831C569.445 281.831 558.507 273.244 558.507 258.328C558.507 236.543 580.654 221.447 621.061 220.814V213.221C621.061 204.272 618.892 198.035 615.185 193.967C611.118 189.447 604.699 187.368 597.287 187.368C578.846 187.368 566.191 202.102 564.473 212.588L564.383 212.498ZM596.835 274.69C609.671 274.69 619.163 262.848 621.061 257.063V224.068C590.778 224.611 581.649 244.859 581.649 257.515C581.649 266.102 586.53 274.599 596.835 274.599V274.69Z" fill="#D28571"/>
<path d="M675.297 182.758V182.396H707.93V263.933C707.93 279.119 716.517 280.656 717.602 280.656V280.837H675.297V280.656C676.111 280.656 684.969 279.119 684.969 263.933V199.481C684.969 184.114 676.201 182.758 675.297 182.758Z" fill="#D28571"/>
<path d="M740.927 182.757V182.395H773.56V201.469C777.628 191.164 787.571 180.678 806.373 180.678C816.046 180.678 824.272 183.751 829.876 189.627C834.577 194.508 837.469 201.469 837.469 210.418V263.842C837.469 279.028 846.057 280.565 847.142 280.565V280.746H804.837V280.565C805.65 280.565 814.509 279.028 814.509 263.842V213.311C814.509 208.068 813.786 202.282 811.616 197.763C809.085 192.158 804.385 188.814 797.424 188.814C784.226 188.814 774.102 201.198 773.56 217.017V263.842C773.56 279.028 782.147 280.565 783.232 280.565V280.746H740.927V280.565C741.741 280.565 750.599 279.028 750.599 263.842V199.39C750.599 184.023 741.831 182.667 740.927 182.667V182.757Z" fill="#D28571"/>
<path d="M938.8 182.758V182.396H961.67V182.758C960.134 182.758 949.829 185.289 943.411 199.843L902.642 291.865C897.038 304.701 890.8 316.091 878.959 316.091C875.252 316.091 873.354 315.549 872.179 315.458V297.56H872.721C874.439 299.73 877.422 300.905 881.218 300.905C888.45 300.905 896.586 297.65 902.009 284.543L904.721 278.306L870.19 200.837C863.591 185.65 853.648 182.939 852.111 182.939V182.577H894.597V182.939C894.597 182.939 887.456 185.289 893.422 198.667L916.744 251.458L940.066 198.667C945.942 185.289 939.072 182.939 938.891 182.939L938.8 182.758Z" fill="#D28571"/>
<path d="M680.63 152.656L695.816 139.096L710.912 152.656L695.816 166.125L680.63 152.656Z" fill="#D28571"/>
</g>
<defs>
<clipPath id="clip0_3342_356">
<rect width="899.164" height="192" fill="white" transform="translate(62.418 124)"/>
</clipPath>
</defs>
</svg>
